<?xml version="1.0" encoding="UTF-8" standalone="no"?>
<!-- Created with Inkscape (http://www.inkscape.org/) -->

<svg
   version="1.1"
   id="svg177"
   width="221"
   height="246"
   viewBox="0 0 221 246"
   sodipodi:docname="hunterthedoggoxcf.svg"
   inkscape:version="1.2.2 (732a01da63, 2022-12-09)"
   xmlns:inkscape="http://www.inkscape.org/namespaces/inkscape"
   xmlns:sodipodi="http://sodipodi.sourceforge.net/DTD/sodipodi-0.dtd"
   xmlns="http://www.w3.org/2000/svg"
   xmlns:svg="http://www.w3.org/2000/svg">
  <defs
     id="defs181" />
  <sodipodi:namedview
     id="namedview179"
     pagecolor="#ffffff"
     bordercolor="#000000"
     borderopacity="0.25"
     inkscape:showpageshadow="2"
     inkscape:pageopacity="0.0"
     inkscape:pagecheckerboard="0"
     inkscape:deskcolor="#d1d1d1"
     showgrid="false"
     inkscape:zoom="2.9520271"
     inkscape:cx="24.898145"
     inkscape:cy="135.50011"
     inkscape:window-width="2560"
     inkscape:window-height="1377"
     inkscape:window-x="-8"
     inkscape:window-y="-8"
     inkscape:window-maximized="1"
     inkscape:current-layer="g183" />
  <g
     inkscape:groupmode="layer"
     inkscape:label="Image"
     id="g183">
    <path
       style="fill:#000000;font-variation-settings:normal;opacity:1;vector-effect:none;fill-opacity:1;stroke-width:1;stroke-linecap:butt;stroke-linejoin:miter;stroke-miterlimit:4;stroke-dasharray:none;stroke-dashoffset:0;stroke-opacity:1;-inkscape-stroke:none;stop-color:#000000;stop-opacity:1"
       d="m 96.5,244.99549 c -24.764483,-0.60827 -25.131183,-0.64897 -38.924955,-4.32064 -14.910966,-3.96904 -32.831199,-10.6917 -35.897586,-13.46675 -2.502334,-2.26458 -1.805238,-7.2636 2.103703,-15.08608 l 2.984028,-5.97157 -1.499611,-8.32522 c -0.824786,-4.57888 -1.874037,-8.72981 -2.331669,-9.2243 -0.473313,-0.51144 -2.865242,1.10539 -5.547743,3.75 -4.998412,4.9278 -8.0977907,5.79459 -10.856268,3.03611 -1.2464511,-1.24645 -1.5467149,-3.23245 -1.3214286,-8.74019 0.2689041,-6.57409 0.4950127,-7.22447 2.9134068,-8.3802 1.4420324,-0.68913 3.0875678,-1.81855 3.6567458,-2.50981 1.532314,-1.86099 1.770787,-7.93909 0.409652,-10.4411 C 10.509442,162.22975 10.726204,148.10293 12.5,145 c 0.786021,-1.375 1.454958,-4.525 1.486527,-7 0.04986,-3.90887 1.688897,-8.63416 4.856115,-14 0.486961,-0.825 1.803113,-5.34655 2.924781,-10.0479 3.072916,-12.87977 12.600864,-30.116052 22.433619,-40.582937 7.385953,-7.862285 7.678021,-8.354634 7.138382,-12.033429 C 51.029962,59.22608 49.696802,55.071783 48.376847,52.103961 42.554135,39.012018 44.452476,31 53.377149,31 c 4.916587,0 7.603252,1.77128 15.513058,10.227538 7.697291,8.22906 12.471908,10.768367 20.287863,10.789791 18.93466,0.0519 33.5235,3.279209 49.97631,11.055637 12.69774,6.001599 12.70198,6.001426 27.04261,-1.100304 10.85555,-5.375865 20.36707,-7.224302 25.7343,-5.001122 2.58702,1.07158 3.3389,0.916962 6.72288,-1.382513 6.84413,-4.650702 10.00639,-3.167376 15.20433,7.131904 C 220.10971,75.107205 220,73.768825 220,137.6396 v 58.2766 l -6.99388,10.2919 c -8.24564,12.13394 -11.00651,15.22429 -15.88261,17.77807 -1.99293,1.04376 -6.99851,4.83862 -11.12351,8.43303 -4.125,3.5944 -10.07467,7.89552 -13.22148,9.55804 -5.38158,2.84318 -6.38686,3.02276 -16.92126,3.02276 -8.89472,0 -11.56613,-0.33154 -12.9798,-1.6109 -1.64442,-1.48818 -1.98447,-1.45009 -4.4636,0.5 -2.22976,1.75393 -3.88681,2.07789 -9.79872,1.91568 C 124.70181,245.6974 110.25,245.33323 96.5,244.99549 Z m -8,-3.14176 c -8.213115,-1.51546 -31.613971,-6.71898 -37.241069,-8.28109 -9.637299,-2.67536 -10.46422,-3.38718 -11.841784,-10.19344 -1.254841,-6.19992 -2.576981,-9.25722 -5.569654,-12.8792 -0.991316,-1.19977 -2.320864,-6.40125 -3.322927,-13 -2.299865,-15.145 -2.39224,-15.51199 -4.066234,-16.15436 -2.432346,-0.93338 -12.108043,4.41495 -14.366679,7.94131 l -2.057959,3.21305 -0.01685,-4.71482 c -0.017634,-4.93504 2.108324,-7.44185 5.279289,-6.22504 1.935451,0.74271 2.880053,-2.657 2.706846,-9.74218 -0.108165,-4.4246 0.292615,-6.11356 1.811023,-7.63196 1.364721,-1.36473 1.662386,-2.3605 0.99183,-3.31797 -0.742792,-1.0606 -1.072076,-1.08713 -1.465299,-0.11803 -0.278962,0.6875 -0.94626,1.25 -1.482886,1.25 -0.536626,0 -0.698614,-0.44831 -0.359973,-0.99624 C 18.678031,159.09391 18.877414,156 17.820138,156 17.146707,156 17.21284,155.44847 18,154.5 c 0.684689,-0.825 2.202289,-1.50614 3.372445,-1.51365 3.62717,-0.0233 6.463237,-1.11576 7.081919,-2.72802 0.920376,-2.39846 -0.113079,-2.67343 -3.635759,-0.96734 -1.780717,0.86243 -3.613091,1.33602 -4.071941,1.05244 -0.458851,-0.28359 -1.414562,-0.034 -2.123802,0.5546 -0.95971,0.79649 -1.289529,0.66809 -1.289529,-0.50202 0,-0.86474 1.05,-1.97145 2.333334,-2.45938 1.99671,-0.75914 2.332121,-1.57597 2.324935,-5.66188 -0.0046,-2.62611 0.662256,-7.69975 1.481944,-11.27475 0.819688,-3.575 2.029447,-9.425 2.688353,-13 0.79213,-4.29782 3.418466,-10.90374 7.751956,-19.498184 5.760146,-11.423878 7.543586,-13.987828 14.724882,-21.169125 l 8.17094,-8.170939 -0.434974,-6.830876 C 56.102701,58.059347 55.066578,53.626634 53.609297,50.5 50.326352,43.456359 49.732453,41.20213 50.428758,38.427828 51.176905,35.446972 53.632224,35.327848 57,38.109013 c 1.375,1.135497 1.942654,1.777119 1.261454,1.425826 -0.816757,-0.421199 -1.036486,-0.112156 -0.645215,0.90748 0.326332,0.850406 0.996177,1.297221 1.488546,0.99292 C 59.597153,41.130939 60,41.433524 60,42.10765 c 0,0.674126 0.284208,0.941476 0.631573,0.594111 0.786101,-0.786102 5.882427,4.584755 8.945345,9.427215 4.473463,7.072528 6.429971,7.618543 29.423082,8.211291 11.275,0.290661 20.6125,0.558009 20.75,0.594104 1.01788,0.267209 -0.13314,1.930962 -1.87297,2.707294 -1.96099,0.87502 -1.84654,1.032129 1.5,2.059214 2.52327,0.774412 3.62297,0.78975 3.62297,0.05053 0,-0.583763 0.80394,-0.33383 1.78654,0.555405 0.98259,0.889236 4.02009,2.589469 6.75,3.778295 2.7299,1.188826 6.85127,3.006014 9.1586,4.038195 4.90954,2.196282 9.87074,2.437904 11.00517,0.535977 0.43983,-0.737394 3.01333,-1.888045 5.71889,-2.557002 2.70556,-0.668958 6.95113,-2.40708 9.4346,-3.862493 2.48348,-1.455413 4.18397,-2.109917 3.77887,-1.454452 -0.49078,0.794096 -0.2187,0.993039 0.81539,0.59622 C 172.30163,67.054013 173,66.481191 173,66.108619 c 0,-2.911771 15.73963,-6.157522 16.69846,-3.443478 0.43511,1.231581 -3.16563,2.83859 -5.69846,2.543223 -0.825,-0.09621 -3.07448,1.955052 -4.99885,4.558356 -1.92437,2.603304 -4.26802,5.308095 -5.20812,6.010646 -0.94009,0.702551 -1.47602,1.885179 -1.19095,2.628062 0.52852,1.377287 -2.2896,11.415906 -3.62892,12.926871 -0.83594,0.943063 1.38738,5.892111 3.3958,7.558945 1.71204,1.420876 3.7239,-0.900022 5.54023,-6.391244 0.72769,-2.2 2.39581,-6.174473 3.70694,-8.832162 C 182.92726,81.010149 184,77.91999 184,76.800817 c 0,-1.119172 1.75458,-3.73762 3.89907,-5.818773 2.63002,-2.552356 3.5697,-4.11327 2.88713,-4.795847 -1.73151,-1.731507 0.1276,-3.153437 3.29479,-2.52 2.39834,0.47967 3.79124,-0.03241 6.91379,-2.541761 l 3.91036,-3.142448 2.64544,4.514111 c 3.72347,6.353615 6.31961,13.583616 8.43046,23.477976 l 1.8189,8.525925 0.10003,-6.568499 c 0.11978,-7.865386 -1.85296,-15.059363 -6.64293,-24.224781 -4.50199,-8.614365 -5.82517,-9.36422 -10.69034,-6.058253 -3.06158,2.080396 -4.42321,2.420698 -7.40882,1.851626 -9.02811,-1.720799 -14.18271,-0.785847 -24.96216,4.527687 -15.0049,7.396391 -17.42356,7.481638 -30.94509,1.09068 C 120.69832,57.294999 106.14867,54.069329 87.17807,54.017329 79.092424,53.995165 75.00033,51.676333 65.177064,41.550204 c -4.027615,-4.151791 -8.382637,-7.81468 -9.677828,-8.139752 -3.559628,-0.89341 -6.151572,0.336 -7.482475,3.549083 -1.324912,3.198621 -0.99228,4.957232 2.466535,13.040465 1.294398,3.025 2.662636,8.052312 3.040531,11.171805 l 0.68708,5.671805 -7.855454,8.361624 c -9.993606,10.63755 -19.49268,27.773066 -22.58803,40.746866 -1.121668,4.70135 -2.43782,9.2229 -2.924781,10.0479 -3.167218,5.36584 -4.806258,10.09113 -4.856115,14 -0.03157,2.475 -0.700506,5.625 -1.486527,7 -1.939568,3.39292 -1.929707,13.94149 0.01563,16.71885 1.138555,1.62552 1.353356,3.54454 0.863384,7.71344 -0.64659,5.50147 -1.596624,7.00076 -5.7356642,9.05166 -3.4133668,1.69133 -3.6076812,12.54829 -0.247662,13.83765 0.8244632,0.31637 3.3145422,-1.33253 5.9786562,-3.95902 3.576171,-3.52565 5.168217,-4.432 7.345683,-4.18189 2.695249,0.30958 2.837283,0.63213 4.660328,10.58338 l 1.880352,10.26406 -3.02417,6.23594 C 20.617838,224.85 20.601202,224.81346 34,230.31299 c 17.327732,7.11215 39.791252,12.56678 51.5,12.50532 7.88108,-0.0414 7.925675,-0.0557 3,-0.96458 z M 120.18828,63.070118 c 0.81605,-1.306702 1.70679,-1.673248 2.75848,-1.135128 0.85428,0.437115 2.22824,1.082631 3.05324,1.43448 0.825,0.351849 0.25176,0.473005 -1.27387,0.269237 -1.52562,-0.203769 -3.01468,0.01916 -3.30901,0.495402 C 121.12278,64.610349 120.45471,65 119.93251,65 c -0.5222,0 -0.4071,-0.868447 0.25577,-1.929882 z m 50.59024,176.907122 c 3.14681,-1.66252 9.09648,-5.96364 13.22148,-9.55804 4.125,-3.59441 9.13058,-7.38927 11.12351,-8.43303 4.8761,-2.55378 7.63697,-5.64413 15.88261,-17.77807 5.95177,-8.75838 6.99034,-10.91892 6.97014,-14.5 l -0.0237,-4.2081 -2.27408,5.5272 c -2.07068,5.03283 -8.26011,14.27879 -15.23459,22.7579 -1.48619,1.8068 -5.68154,5.23235 -9.32301,7.61233 -3.64147,2.37998 -9.24008,6.64403 -12.44137,9.47569 -6.33567,5.60412 -9.42043,7.43793 -17.12821,10.18226 l -5.05127,1.79849 4.27852,0.0731 c 2.93807,0.0502 6.07103,-0.87395 10,-2.94969 z M 170,228 c 0,-0.55 -0.70156,-1 -1.55902,-1 -0.85746,0 -1.2809,0.45 -0.94098,1 0.33992,0.55 1.04148,1 1.55902,1 0.51754,0 0.94098,-0.45 0.94098,-1 z m -17,-8.92857 C 153,217.24837 149.81284,215 147.22857,215 c -2.90571,0 -2.23426,1.21927 1.93725,3.51777 2.91334,1.60525 3.83418,1.73822 3.83418,0.55366 z m -71.5,-13.7443 c 2.2,-1.88513 4.45,-3.8163 5,-4.29147 0.55,-0.47518 2.53221,-2.48425 4.404911,-4.46461 3.156131,-3.33756 3.533572,-3.4842 5.165832,-2.00703 2.551039,2.30866 7.702917,3.05305 16.929257,2.44611 3.51782,-0.23142 10.45283,-4.14185 11.31086,-6.37783 0.25309,-0.65954 2.30652,-2.08412 4.56318,-3.16573 2.25666,-1.08161 4.17672,-2.41657 4.2668,-2.96657 0.72983,-4.45596 1.85347,-6.5 3.57314,-6.5 0.92249,0 1.27839,-0.57751 0.92439,-1.5 -0.39501,-1.0294 0.0605,-1.5 1.45203,-1.5 1.18236,0 1.75265,-0.44494 1.368,-1.06731 -0.36775,-0.59503 0.33531,-1.32749 1.58884,-1.6553 2.13465,-0.55822 2.15609,-0.65554 0.42362,-1.92236 -2.38053,-1.74068 -1.58061,-2.4045 3.69655,-3.06758 2.38293,-0.29942 5.23259,-1.31953 6.33259,-2.26691 1.1,-0.94738 2.77991,-1.99754 3.73314,-2.33367 0.95323,-0.33614 1.51665,-1.1907 1.25205,-1.89902 -0.2924,-0.78273 1.08601,-1.94469 3.51438,-2.96253 2.90627,-1.21815 3.83067,-2.10412 3.39096,-3.25 C 164.05805,153.70889 163.15917,153 162.39301,153 c -2.57409,0 -1.42321,-1.86367 1.34844,-2.18358 3.31886,-0.38307 4.23004,-3.38556 1.60904,-5.30208 -1.66743,-1.21926 -1.50286,-1.39513 1.90339,-2.03414 2.05074,-0.38473 3.49315,-1.0805 3.20534,-1.54618 -0.2878,-0.46567 -1.18386,-0.59318 -1.99125,-0.28336 -0.80738,0.30983 -1.46797,0.0418 -1.46797,-0.59569 0,-0.63746 1.34947,-1.62944 2.99881,-2.2044 1.64935,-0.57497 2.72883,-1.48224 2.39885,-2.01616 -0.32998,-0.53391 -1.22944,-0.7292 -1.99881,-0.43397 C 169.59171,136.71017 169,136.31601 169,135.46862 169,134.66088 168.10282,134 167.00627,134 c -1.19821,0 -3.21644,-1.69579 -5.05809,-4.25 -4.05569,-5.62487 -9.43382,-9.79727 -17.01231,-13.19829 l -6.21125,-2.78744 -3.61231,2.19051 c -1.98677,1.20478 -4.8588,2.70987 -6.38228,3.34464 -1.56763,0.65317 -2.55789,1.70679 -2.28138,2.42735 0.72773,1.89643 -0.38678,1.5578 -4.03754,-1.22677 -1.80272,-1.375 -3.75769,-2.5 -4.34439,-2.5 -0.5867,0 -1.09354,-0.5625 -1.12633,-1.25 -0.0328,-0.6875 -0.41458,-3.40817 -0.84844,-6.04593 -0.64937,-3.94808 -0.50057,-4.9502 0.84168,-5.66855 0.89678,-0.47994 2.67169,-2.9574 3.94426,-5.505462 2.49685,-4.999463 4.43325,-5.471137 4.93853,-1.202939 0.17403,1.470084 0.76796,2.672881 1.31983,2.672881 1.97591,0 9.87082,6.13345 11.31537,8.79076 1.46374,2.69262 1.47045,2.68243 1.09405,-1.66058 -0.24657,-2.84496 -1.45471,-5.8681 -3.4622,-8.663477 C 133.58417,95.986481 133,94.187419 133,89.970499 133,85.576041 132.44313,84.009349 129.41483,79.883977 127.44299,77.19779 125.39564,75 124.86517,75 c -4.23833,0 -11.98825,7.934307 -15.86551,16.242991 -1.21733,2.608645 -2.6469,4.475026 -3.17683,4.147513 -0.56967,-0.352075 -0.7789,-5.150869 -0.51188,-11.740133 C 105.90013,69.111157 105.46473,68 99.178389,68 93.227468,68 88.44303,70.242595 86.53911,73.92437 c -0.887723,1.716666 -3.057045,3.390607 -5.733566,4.424261 -2.368049,0.914524 -6.237599,3.460206 -8.598999,5.65707 -4.675309,4.349545 -4.71069,4.544066 -0.521645,2.867873 4.303941,-1.722166 8.434441,-1.767076 12.5651,-0.136618 2.362248,0.932428 3.75,2.134843 3.75,3.249179 0,0.972937 0.675,2.329176 1.5,3.013865 2.091631,1.7359 1.828079,3.215919 -0.929508,5.219809 -2.984633,2.168881 -10.304173,4.948411 -13.526812,5.136681 -2.072666,0.1211 -2.482453,-0.33509 -2.623638,-2.92068 C 71.96743,92.146876 68.59917,89.493995 57.634195,88.790306 l -7.844049,-0.503401 -4.570925,3.956108 c -2.863696,2.478511 -4.674056,4.923407 -4.847047,6.545951 -0.151868,1.424416 -1.212575,3.856466 -2.357129,5.404556 -1.660438,2.24586 -1.86187,3.22417 -0.9967,4.84076 1.291017,2.41229 2.007547,6.52287 2.420341,13.88501 0.198608,3.54215 0.859524,5.8256 1.908063,6.59231 0.914437,0.66865 1.617815,2.63824 1.635858,4.58071 0.06584,7.08844 0.09317,7.1397 3.43406,6.44009 C 48.1125,140.17728 51.3,139.63113 53.5,139.31872 c 2.2,-0.31241 4.887628,-1.18693 5.972506,-1.94337 C 61.388592,136.03934 61.377584,136 59.087648,136 h -2.357365 l 2.542588,-2 c 1.398423,-1.1 2.742368,-2 2.986544,-2 0.244176,0 1.875087,1.36766 3.624246,3.03926 C 68.995603,138.01319 71,138.21249 71,135.54797 c 0,-0.7337 0.706028,-1.60492 1.568951,-1.93606 1.026573,-0.39393 1.354366,-1.27815 0.948217,-2.55782 -0.882706,-2.78116 1.113739,-9.41009 3.478615,-11.55027 C 78.130958,118.4765 79,118.19084 79,118.84501 c 0,0.63525 1.0125,1.1481 2.25,1.13968 1.856432,-0.0126 1.987622,-0.19817 0.75,-1.06068 -1.105929,-0.77073 -0.5805,-0.87142 2,-0.38329 5.568056,1.05327 12.233382,4.30374 15.696196,7.65452 2.651864,2.56607 3.099454,3.62177 2.628154,6.19878 -0.71876,3.93006 -2.8317,7.32056 -6.470014,10.382 C 93.978065,144.3548 93,146.12858 93,147.95253 93,152.86513 101.27488,159 107.90113,159 109.60551,159 111,159.41493 111,159.92208 111,160.96396 103.05327,168 101.87654,168 c -0.41991,0 -1.56093,1.35 -2.535611,3 -0.974679,1.65 -2.549399,3 -3.499376,3 -0.949978,0 -3.215455,0.79752 -5.034393,1.77227 -1.818938,0.97475 -4.43216,1.74296 -5.80716,1.70713 -1.375,-0.0358 -3.105951,0.76726 -3.846557,1.78463 -1.758193,2.41523 -5.378622,1.86238 -6.640571,-1.01403 -0.542921,-1.2375 -1.47123,-2.25 -2.062909,-2.25 -2.613565,0 -10.248347,-11.54959 -10.419942,-15.76287 -0.03705,-0.90982 -0.547657,-0.90039 -5.395997,0.0996 -2.126287,0.43856 -4.974032,1.82484 -6.328323,3.08061 l -2.462346,2.28321 4.018051,3.89972 c 2.578117,2.50218 4.187708,5.06527 4.491467,7.15213 0.260378,1.78883 1.637501,4.63586 3.060271,6.32673 C 60.835915,184.77001 62,186.56892 62,187.07673 62,187.58453 62.681932,188 63.515405,188 c 1.169461,0 1.500986,1.1985 1.452246,5.25 -0.113089,9.4004 0.958138,12.75 4.077552,12.75 0.71012,0 0.969726,0.83491 0.645327,2.07541 -0.504903,1.93075 -0.251649,2.02676 3.633369,1.37733 2.595491,-0.43387 5.690058,-1.99537 8.176101,-4.12561 z M 57,127.58333 C 57,126.7125 57.7125,126 58.583333,126 c 1.765927,0 1.45839,2.15276 -0.395833,2.77083 C 57.534375,128.98854 57,128.45417 57,127.58333 Z m 38.55361,36.67424 c 0.697971,-0.95453 1.056633,-2.07919 0.797026,-2.49925 -0.544193,-0.88052 -2.77691,0.27816 -6.350636,3.2957 l -2.5,2.11092 3.392285,-0.58593 c 1.865757,-0.32226 3.963353,-1.36691 4.661325,-2.32144 z M 71.631251,156.70411 C 69.770041,151.29021 69,151.12317 69,156.13333 c 0,2.45667 0.542957,5.00963 1.206571,5.67324 2.013437,2.01344 2.845961,-0.96823 1.42468,-5.10246 z M 36.25,159.60795 c 2.424151,-1.84019 2.211603,-2.3132 -1.268981,-2.82404 -1.786493,-0.26221 -3.469465,0.0997 -4.122444,0.8865 -0.812104,0.97852 -0.79151,1.32959 0.078,1.32959 0.649804,0 0.903347,0.45 0.563428,1 -0.902255,1.45988 2.702309,1.16237 4.75,-0.39205 z m 7.160721,-1.46349 c 0.290815,-0.47055 -0.582628,-0.64309 -1.940983,-0.38343 C 40.111382,158.0207 39,158.40569 39,158.61658 c 0,0.77375 3.898641,0.35644 4.410721,-0.47212 z M 27.5,156 c 0.339919,-0.55 -0.110081,-1 -1,-1 -0.889919,0 -1.339919,0.45 -1,1 0.339919,0.55 0.789919,1 1,1 0.210081,0 0.660081,-0.45 1,-1 z m 18.75,-0.66228 c -0.6875,-0.27741 -1.8125,-0.27741 -2.5,0 -0.6875,0.27741 -0.125,0.50439 1.25,0.50439 1.375,0 1.9375,-0.22698 1.25,-0.50439 z m -0.820672,-2.45207 C 45.128279,152.39854 47.102274,152 49.815983,152 c 2.713709,0 6.452767,-0.26289 8.309017,-0.58419 2.556043,-0.44244 3.011019,-0.32483 1.875,0.48469 -0.825,0.58788 -3.3,1.12751 -5.5,1.19919 l -4,0.13031 3.956201,0.7611 c 4.498832,0.86549 10.645087,-0.67815 8.390172,-2.10721 C 61.913234,151.29251 62.420771,150.97983 64.5,150.86512 66.836542,150.73621 66.504813,150.54489 63,150 l -4.5,-0.69961 5,-0.31319 5,-0.31319 L 63,148 57.5,147.32599 62.75,147.163 c 5.386689,-0.16724 7.4389,-2.0546 2.5,-2.29918 -2.357845,-0.11676 -2.429146,-0.19798 -0.5,-0.56955 2.32635,-0.44808 2.946977,-1.74548 1.316893,-2.75293 C 64.835991,140.7806 52,143.23222 52,144.22805 52,144.65262 49.273442,145 45.940983,145 c -3.332459,0 -5.836567,0.35993 -5.564683,0.79985 0.756589,1.22419 -2.561693,2.90196 -5.473455,2.76746 -3.239851,-0.14966 -5.081249,1.59628 -3.727474,3.53425 0.751753,1.07615 1.093783,1.11036 1.484093,0.14844 0.316326,-0.77958 2.451591,-1.23803 5.673869,-1.2182 4.488293,0.0276 4.938936,0.20474 3.432211,1.34888 -0.953952,0.72439 -1.505876,1.54566 -1.226498,1.82503 0.863555,0.86356 5.471149,-0.3802 4.890282,-1.32006 z M 45,150 c 1.938759,-1.25292 3,-1.25292 3,0 0,0.55 -1.0125,0.99311 -2.25,0.98469 C 43.930562,150.9723 43.787041,150.78387 45,150 Z m 5.269032,-2.69299 c 0.972967,-0.25354 2.322967,-0.23687 3,0.0371 0.677032,0.27393 -0.119032,0.48137 -1.769032,0.46099 -1.65,-0.0204 -2.203936,-0.2445 -1.230968,-0.49804 z M 58.75,145.33772 c 0.6875,-0.27741 1.8125,-0.27741 2.5,0 0.6875,0.27741 0.125,0.50439 -1.25,0.50439 -1.375,0 -1.9375,-0.22698 -1.25,-0.50439 z M 173.75558,110.22164 C 172.44937,107.54389 170,106.03613 170,107.90981 c 0,0.59206 0.77922,2.87509 1.7316,5.0734 1.55079,3.57959 1.81242,3.77847 2.50558,1.90466 0.45694,-1.23522 0.25967,-3.14663 -0.4816,-4.66623 z m -41.14719,2.3565 c 0.7274,-1.89559 -1.16195,-5.26885 -3.71695,-6.63624 -2.99505,-1.6029 -3.43479,-0.44812 -1.00544,2.6403 1.1627,1.47813 2.114,3.30183 2.114,4.05266 0,1.79912 1.91219,1.75754 2.60839,-0.0567 z M 164.68311,95.8125 c -0.31922,-0.797733 -0.55618,-0.560776 -0.60416,0.604167 -0.0434,1.054166 0.19292,1.644791 0.52522,1.3125 0.33229,-0.332292 0.36781,-1.194792 0.0789,-1.916667 z M 83.078178,90.678178 C 82.307274,89.907274 82,90.464482 82,92.633333 c 0,3.947559 1.403173,5.360407 1.828178,1.840784 0.180497,-1.494769 -0.157003,-3.202942 -0.75,-3.795939 z"
       id="path187" />
  </g>
</svg>
