<?xml version="1.0" encoding="UTF-8" standalone="no"?>
<!-- Created with Inkscape (http://www.inkscape.org/) -->

<svg
   version="1.1"
   id="svg177"
   width="221"
   height="246"
   viewBox="0 0 221 246"
   sodipodi:docname="hunterthedoggoxcf_invert.svg"
   inkscape:version="1.2.2 (732a01da63, 2022-12-09)"
   xml:space="preserve"
   xmlns:inkscape="http://www.inkscape.org/namespaces/inkscape"
   xmlns:sodipodi="http://sodipodi.sourceforge.net/DTD/sodipodi-0.dtd"
   xmlns="http://www.w3.org/2000/svg"
   xmlns:svg="http://www.w3.org/2000/svg"><defs
     id="defs181" /><sodipodi:namedview
     id="namedview179"
     pagecolor="#ffffff"
     bordercolor="#000000"
     borderopacity="0.25"
     inkscape:showpageshadow="2"
     inkscape:pageopacity="0.0"
     inkscape:pagecheckerboard="0"
     inkscape:deskcolor="#d1d1d1"
     showgrid="false"
     inkscape:zoom="4.1747967"
     inkscape:cx="110.78384"
     inkscape:cy="123.3593"
     inkscape:window-width="2560"
     inkscape:window-height="1377"
     inkscape:window-x="-8"
     inkscape:window-y="-8"
     inkscape:window-maximized="1"
     inkscape:current-layer="g183" /><g
     inkscape:groupmode="layer"
     inkscape:label="Image"
     id="g183"><path
       style="fill:#000000"
       d="M 67.14813,239.21855 C 47.965311,234.7762 27.572249,227.64463 23.420872,223.92688 c -2.055629,-1.84091 -1.782946,-3.14728 2.500671,-11.98023 l 3.02417,-6.23594 -1.880352,-10.26406 c -1.823045,-9.95125 -1.965079,-10.2738 -4.660328,-10.58338 -2.177466,-0.25011 -3.769512,0.65624 -7.345683,4.18189 -2.664114,2.62649 -5.1541926,4.27539 -5.9786563,3.95902 -3.3600192,-1.28936 -3.1657048,-12.14632 0.247662,-13.83765 4.1390403,-2.0509 5.0890743,-3.55019 5.7356643,-9.05166 0.489972,-4.1689 0.275171,-6.08792 -0.863384,-7.71344 -1.945335,-2.77736 -1.955196,-13.32593 -0.01563,-16.71885 0.786021,-1.375 1.454958,-4.525 1.486527,-7 0.04986,-3.90887 1.688897,-8.63416 4.856115,-14 0.486961,-0.825 1.803113,-5.34655 2.924781,-10.0479 3.09535,-12.9738 12.594424,-30.109321 22.58803,-40.746871 l 7.855454,-8.361624 -0.68708,-5.671805 C 52.83094,56.734887 51.462702,51.707575 50.168304,48.682575 46.709489,40.599342 46.376857,38.840731 47.701769,35.64211 c 1.330903,-3.213083 3.922847,-4.442493 7.482475,-3.549083 1.295191,0.325072 5.650213,3.987961 9.677828,8.139752 9.823266,10.126129 13.91536,12.444961 22.001006,12.467125 18.970602,0.052 33.520252,3.27767 50.072562,11.101131 13.52153,6.390958 15.94019,6.305711 30.94509,-1.09068 10.77945,-5.313534 15.93405,-6.248486 24.96216,-4.527687 2.98561,0.569072 4.34724,0.22877 7.40882,-1.851626 4.86517,-3.305967 6.18835,-2.556112 10.69034,6.058253 4.78997,9.165418 6.76271,16.359395 6.64293,24.224781 l -0.10003,6.568499 -1.8189,-8.525925 c -2.11085,-9.89436 -4.70699,-17.124361 -8.43046,-23.477976 l -2.64544,-4.514111 -3.91036,3.142448 c -3.12255,2.509353 -4.51545,3.021431 -6.91379,2.541761 -3.16719,-0.633437 -5.0263,0.788493 -3.29479,2.52 0.68257,0.682577 -0.25711,2.243491 -2.88713,4.795847 -2.14449,2.081153 -3.89907,4.699601 -3.89907,5.818773 0,1.119173 -1.07274,4.209332 -2.38387,6.867021 -1.31113,2.657689 -2.97925,6.632162 -3.70694,8.832162 -1.81633,5.491222 -3.82819,7.812124 -5.54023,6.391244 -2.00842,-1.666834 -4.23174,-6.615882 -3.3958,-7.558945 1.33932,-1.510965 4.15744,-11.549584 3.62892,-12.926871 -0.28507,-0.742883 0.25086,-1.925511 1.19095,-2.628062 0.9401,-0.702551 3.28375,-3.407342 5.20812,-6.010646 1.92437,-2.603304 4.17385,-4.654564 4.99885,-4.558356 2.53283,0.295367 6.13357,-1.311642 5.69846,-2.543223 -0.95883,-2.714044 -16.69846,0.531707 -16.69846,3.443478 0,0.372572 -0.69837,0.945394 -1.55194,1.272938 -1.03409,0.396819 -1.30617,0.197876 -0.81539,-0.59622 0.4051,-0.655465 -1.29539,-9.61e-4 -3.77887,1.454452 -2.48347,1.455413 -6.72904,3.193535 -9.4346,3.862493 -2.70556,0.668957 -5.27906,1.819608 -5.71889,2.557002 -1.13443,1.901927 -6.09563,1.660305 -11.00517,-0.535977 -2.30733,-1.032181 -6.4287,-2.849369 -9.1586,-4.038195 -2.72991,-1.188826 -5.76741,-2.889059 -6.75,-3.778295 -0.9826,-0.889235 -1.78654,-1.139168 -1.78654,-0.555405 0,0.739217 -1.0997,0.723879 -3.62297,-0.05053 -3.34654,-1.027085 -3.46099,-1.184194 -1.5,-2.059214 1.73983,-0.776332 2.89085,-2.440085 1.87297,-2.707294 -0.1375,-0.0361 -9.475,-0.303446 -20.750002,-0.594107 -22.993111,-0.592748 -24.949619,-1.138763 -29.423082,-8.211291 -3.062918,-4.84246 -8.159244,-10.213317 -8.945345,-9.427215 -0.347365,0.347365 -0.631573,0.08001 -0.631573,-0.594111 0,-0.674126 -0.402847,-0.976711 -0.895215,-0.672411 -0.492369,0.304301 -1.162214,-0.142514 -1.488546,-0.99292 -0.391271,-1.019636 -0.171542,-1.328679 0.645215,-0.90748 0.6812,0.351293 0.113546,-0.290329 -1.261454,-1.425826 -3.367776,-2.781165 -5.823095,-2.662041 -6.571242,0.318815 -0.696305,2.774302 -0.102406,5.028531 3.180539,12.072172 1.457281,3.126634 2.493404,7.559347 2.765406,11.830876 l 0.434974,6.830876 -8.17094,8.170939 c -7.181296,7.181297 -8.964736,9.745247 -14.724882,21.169125 -4.33349,8.594449 -6.959826,15.200369 -7.751956,19.498189 -0.658906,3.575 -1.868665,9.425 -2.688353,13 -0.819688,3.575 -1.486563,8.64864 -1.481944,11.27475 0.0072,4.08591 -0.328225,4.90274 -2.324935,5.66188 -1.283334,0.48793 -2.333334,1.59464 -2.333334,2.45938 0,1.17011 0.329819,1.29851 1.289529,0.50202 0.70924,-0.58861 1.664951,-0.83819 2.123802,-0.5546 0.45885,0.28358 2.291224,-0.19001 4.071941,-1.05244 3.52268,-1.70609 4.556135,-1.43112 3.635759,0.96734 -0.618682,1.61226 -3.454749,2.70474 -7.081919,2.72802 -1.170156,0.008 -2.687756,0.68865 -3.372445,1.51365 -0.78716,0.94847 -0.853293,1.5 -0.179862,1.5 1.057276,0 0.857893,3.09391 -0.322461,5.00376 -0.338641,0.54793 -0.176653,0.99624 0.359973,0.99624 0.536626,0 1.203924,-0.5625 1.482886,-1.25 0.393223,-0.9691 0.722507,-0.94257 1.465299,0.11803 0.670556,0.95747 0.372891,1.95324 -0.99183,3.31797 -1.518408,1.5184 -1.919188,3.20736 -1.811023,7.63196 0.173207,7.08518 -0.771395,10.48489 -2.706846,9.74218 -3.170965,-1.21681 -5.296923,1.29 -5.2792891,6.22504 l 0.01685,4.71482 2.0579591,-3.21305 c 2.258636,-3.52636 11.934333,-8.87469 14.366679,-7.94131 1.673994,0.64237 1.766369,1.00936 4.066234,16.15436 1.002063,6.59875 2.331611,11.80023 3.322927,13 2.992673,3.62198 4.314813,6.67928 5.569654,12.8792 1.377564,6.80626 2.204485,7.51808 11.841784,10.19344 5.627098,1.56211 29.027954,6.76563 37.241069,8.28109 4.925675,0.90887 4.88108,0.92321 -3,0.96458 -4.967868,0.0261 -11.804142,-0.83897 -18.036878,-2.28234 z m 53.954,-176.401866 c 0.29433,-0.476239 1.78339,-0.699171 3.30901,-0.495402 1.52563,0.203768 2.09887,0.08261 1.27387,-0.269237 -0.825,-0.351849 -2.19896,-0.997365 -3.05324,-1.43448 -1.05169,-0.53812 -1.94243,-0.171574 -2.75848,1.135128 -0.66287,1.061435 -0.77797,1.929882 -0.25577,1.929882 0.5222,0 1.19027,-0.389651 1.48461,-0.865891 z m 40.13415,176.921276 c 7.70778,-2.74433 10.79254,-4.57814 17.12821,-10.18226 3.20129,-2.83166 8.7999,-7.09571 12.44137,-9.47569 3.64147,-2.37998 7.83682,-5.80553 9.32301,-7.61233 6.97448,-8.47911 13.16391,-17.72507 15.23459,-22.7579 l 2.27408,-5.5272 0.0237,4.2081 c 0.0202,3.58108 -1.01837,5.74162 -6.97014,14.5 -8.24564,12.13394 -11.00651,15.22429 -15.88261,17.77807 -1.99293,1.04376 -6.99851,4.83862 -11.12351,8.43303 -9.56293,8.33285 -17.49544,12.60552 -23.22148,12.50773 l -4.27852,-0.0731 5.05127,-1.79849 z m 5.94873,-13.05538 c -0.33992,-0.55 0.0835,-1 0.94098,-1 0.85746,0 1.55902,0.45 1.55902,1 0,0.55 -0.42344,1 -0.94098,1 -0.51754,0 -1.2191,-0.45 -1.55902,-1 z m -18.33418,-9.48223 c -4.17151,-2.2985 -4.84296,-3.51777 -1.93725,-3.51777 2.58427,0 5.77143,2.24837 5.77143,4.07143 0,1.18456 -0.92084,1.05159 -3.83418,-0.55366 z M 69.375538,206.75799 c 0.324399,-1.2405 0.06479,-2.07541 -0.645327,-2.07541 -3.119414,0 -4.190641,-3.3496 -4.077552,-12.75 0.04874,-4.0515 -0.282785,-5.25 -1.452246,-5.25 -0.833473,0 -1.515405,-0.41547 -1.515405,-0.92327 0,-0.50781 -1.164085,-2.30672 -2.586856,-3.99758 -1.42277,-1.69087 -2.799893,-4.5379 -3.060271,-6.32673 -0.303759,-2.08686 -1.91335,-4.64995 -4.491467,-7.15213 l -4.018051,-3.89972 2.462346,-2.28321 c 1.354291,-1.25577 4.202036,-2.64205 6.328323,-3.08061 4.84834,-1.00001 5.358943,-1.00944 5.395997,-0.0996 0.171595,4.21326 7.806377,15.76285 10.419942,15.76285 0.591679,0 1.519988,1.0125 2.062909,2.25 1.261949,2.87641 4.882378,3.42926 6.640571,1.01403 0.740606,-1.01737 2.471557,-1.82045 3.846557,-1.78463 1.375,0.0358 3.988222,-0.73238 5.80716,-1.70713 1.818938,-0.97475 4.084415,-1.77227 5.034393,-1.77227 0.949977,0 2.524697,-1.35 3.499376,-3 0.974683,-1.65 2.115703,-3 2.535613,-3 1.17673,0 9.12346,-7.03604 9.12346,-8.07792 0,-0.50715 -1.39449,-0.92208 -3.09887,-0.92208 -6.62625,0 -14.901132,-6.13487 -14.901132,-11.04747 0,-1.82395 0.978065,-3.59773 2.854336,-5.17651 3.638314,-3.06144 5.751256,-6.45194 6.470016,-10.382 0.4713,-2.57701 0.0237,-3.63271 -2.628156,-6.19878 -3.462814,-3.35078 -10.12814,-6.60125 -15.696196,-7.65452 -2.5805,-0.48813 -3.105929,-0.38744 -2,0.38329 1.237622,0.86251 1.106432,1.04804 -0.75,1.06068 -1.2375,0.008 -2.25,-0.50443 -2.25,-1.13968 0,-0.65417 -0.869042,-0.36851 -2.004217,0.65881 -2.364876,2.14018 -4.361321,8.76911 -3.478615,11.55027 0.406149,1.27967 0.07836,2.16389 -0.948217,2.55782 -0.862923,0.33114 -1.568951,1.20236 -1.568951,1.93606 0,2.66452 -2.004397,2.46522 -5.116339,-0.50871 -1.749159,-1.6716 -3.38007,-3.03926 -3.624246,-3.03926 -0.244176,0 -1.588121,0.9 -2.986544,2 l -2.542588,2 h 2.357365 c 2.289936,0 2.300944,0.0393 0.384858,1.37535 -1.084878,0.75644 -3.772506,1.63096 -5.972506,1.94337 -2.2,0.31241 -5.3875,0.85856 -7.083333,1.21368 -3.340885,0.69961 -3.368216,0.64835 -3.43406,-6.44009 -0.01804,-1.94247 -0.721421,-3.91206 -1.635858,-4.58071 -1.048539,-0.76671 -1.709455,-3.05016 -1.908063,-6.59231 -0.412794,-7.36214 -1.129324,-11.47272 -2.420341,-13.88501 -0.86517,-1.61659 -0.663738,-2.5949 0.9967,-4.84076 1.144554,-1.54809 2.205261,-3.980141 2.357129,-5.404561 0.172991,-1.622544 1.983351,-4.06744 4.847047,-6.545951 l 4.570925,-3.956108 7.844049,0.503401 c 10.964975,0.703689 14.333235,3.35657 14.785847,11.645508 0.141185,2.585591 0.550972,3.041781 2.623638,2.920681 3.222639,-0.18827 10.542179,-2.967801 13.526812,-5.136686 2.757587,-2.00389 3.021139,-3.483909 0.929508,-5.219809 -0.825,-0.684689 -1.5,-2.040928 -1.5,-3.013865 0,-1.114336 -1.387752,-2.316751 -3.75,-3.249179 -4.130659,-1.630458 -8.261159,-1.585548 -12.5651,0.136618 -4.189045,1.676193 -4.153664,1.481672 0.521645,-2.867873 2.3614,-2.196864 6.23095,-4.742546 8.598999,-5.65707 2.676521,-1.033654 4.845843,-2.707595 5.733566,-4.424261 1.90392,-3.681775 6.688358,-5.92437 12.639279,-5.92437 6.286343,0 6.721743,1.111157 6.132563,15.650371 -0.26702,6.589264 -0.0578,11.388058 0.51188,11.740133 0.52993,0.327513 1.9595,-1.538868 3.17683,-4.147513 3.87726,-8.308684 11.62718,-16.242991 15.86551,-16.242991 0.53047,0 2.57782,2.19779 4.54966,4.883977 3.0283,4.125372 3.58517,5.692064 3.58517,10.086522 0,4.21692 0.58417,6.015982 3.08347,9.496205 2.00749,2.795381 3.21563,5.818521 3.4622,8.663481 0.3764,4.34301 0.36969,4.3532 -1.09405,1.66058 -1.44455,-2.65731 -9.33946,-8.790761 -11.31537,-8.790761 -0.55187,0 -1.1458,-1.2028 -1.31983,-2.672885 -0.50528,-4.268198 -2.44168,-3.796524 -4.93853,1.202935 -1.27257,2.548071 -3.04748,5.025531 -3.94426,5.505471 -1.34225,0.71835 -1.49105,1.72047 -0.84168,5.66855 0.43386,2.63776 0.81565,5.35843 0.84844,6.04593 0.0328,0.6875 0.53963,1.25 1.12633,1.25 0.5867,0 2.54167,1.125 4.34439,2.5 3.65076,2.78457 4.76527,3.1232 4.03754,1.22677 -0.27651,-0.72056 0.71375,-1.77418 2.28138,-2.42735 1.52348,-0.63477 4.39551,-2.13986 6.38228,-3.34464 l 3.61231,-2.19051 6.21125,2.78744 c 7.57849,3.40102 12.95662,7.57342 17.01231,13.19829 1.84165,2.55421 3.85988,4.25 5.05809,4.25 1.09655,0 1.99373,0.66088 1.99373,1.46862 0,0.84739 0.59171,1.24155 1.39885,0.93182 0.76937,-0.29523 1.66883,-0.0999 1.99881,0.43397 0.32998,0.53392 -0.7495,1.44119 -2.39885,2.01616 -1.64934,0.57496 -2.99881,1.56694 -2.99881,2.2044 0,0.63745 0.66059,0.90552 1.46797,0.59569 0.80739,-0.30982 1.70345,-0.18231 1.99125,0.28336 0.28781,0.46568 -1.1546,1.16145 -3.20534,1.54618 -3.40625,0.63901 -3.57082,0.81488 -1.90339,2.03414 2.621,1.91652 1.70982,4.91901 -1.60904,5.30208 -2.77165,0.31991 -3.92253,2.18358 -1.34844,2.18358 0.76616,0 1.66504,0.70889 1.99752,1.57532 0.43971,1.14588 -0.48469,2.03185 -3.39096,3.25 -2.42837,1.01784 -3.80678,2.1798 -3.51438,2.96253 0.2646,0.70832 -0.29882,1.56288 -1.25205,1.89902 -0.95323,0.33613 -2.63314,1.38629 -3.73314,2.33367 -1.1,0.94738 -3.94966,1.96749 -6.33259,2.26691 -5.27716,0.66308 -6.07708,1.3269 -3.69655,3.06758 1.73247,1.26682 1.71103,1.36414 -0.42362,1.92236 -1.25353,0.32781 -1.95659,1.06027 -1.58884,1.6553 0.38465,0.62237 -0.18564,1.06731 -1.368,1.06731 -1.3915,0 -1.84704,0.4706 -1.45203,1.5 0.354,0.92249 -0.002,1.5 -0.92439,1.5 -1.71967,0 -2.84331,2.04404 -3.57314,6.5 -0.0901,0.55 -2.01014,1.88496 -4.2668,2.96657 -2.25666,1.08161 -4.31009,2.50619 -4.56318,3.16573 -0.85803,2.23598 -7.79304,6.14641 -11.31086,6.37783 -9.22634,0.60694 -14.37822,-0.13745 -16.929259,-2.44611 -1.63226,-1.47717 -2.009701,-1.33053 -5.165832,2.00703 -1.872701,1.98036 -3.854911,3.98943 -4.404911,4.46461 -7.818761,6.75508 -9.443797,7.79318 -13.176101,8.41708 -3.885018,0.64943 -4.138272,0.55342 -3.633369,-1.37733 z m -9.919697,-80.88791 c 0.217709,-0.65313 -0.316666,-1.1875 -1.1875,-1.1875 -0.870833,0 -1.583333,0.7125 -1.583333,1.58333 0,1.76593 2.152759,1.45839 2.770833,-0.39583 z m 30.229167,37.86652 c 3.573726,-3.01754 5.806443,-4.17622 6.350636,-3.2957 0.941318,1.52309 -2.144364,4.24829 -5.458351,4.82069 l -3.392285,0.58593 z m -19.793429,-3.24745 c -0.663614,-0.66361 -1.206571,-3.21657 -1.206571,-5.67324 0,-5.01016 0.770041,-4.84312 2.631251,0.57078 1.421281,4.13423 0.588757,7.1159 -1.42468,5.10246 z m -38.706571,-1.80657 c 0.339919,-0.55 0.08638,-1 -0.563428,-1 -0.869507,0 -0.890101,-0.35107 -0.078,-1.32959 0.652979,-0.78679 2.335951,-1.14871 4.122444,-0.8865 3.480584,0.51084 3.693132,0.98385 1.268981,2.82404 -2.047691,1.55442 -5.652255,1.85193 -4.75,0.39205 z m 7.5,-1.38342 c 0,-0.21089 1.111382,-0.59588 2.469738,-0.85555 1.358355,-0.25966 2.231798,-0.0871 1.940983,0.38343 -0.51208,0.82856 -4.410721,1.24587 -4.410721,0.47212 z m -13.5,-2.61658 c -0.339919,-0.55 0.110081,-1 1,-1 0.889919,0 1.339919,0.45 1,1 -0.339919,0.55 -0.789919,1 -1,1 -0.210081,0 -0.660081,-0.45 -1,-1 z m 18.25,-0.66228 c 0.6875,-0.27741 1.8125,-0.27741 2.5,0 0.6875,0.27741 0.125,0.50439 -1.25,0.50439 -1.375,0 -1.9375,-0.22698 -1.25,-0.50439 z m -3.210954,-1.13201 c -0.279378,-0.27937 0.272546,-1.10064 1.226498,-1.82503 1.506725,-1.14414 1.056082,-1.32125 -3.432211,-1.34888 -3.222278,-0.0198 -5.357543,0.43862 -5.673869,1.2182 -0.39031,0.96192 -0.73234,0.92771 -1.484093,-0.14844 -1.353775,-1.93797 0.487623,-3.68391 3.727474,-3.53425 2.911762,0.1345 6.230044,-1.54327 5.473455,-2.76746 -0.271884,-0.43992 2.232224,-0.79985 5.564683,-0.79985 3.332459,0 6.059017,-0.34738 6.059017,-0.77195 0,-0.99583 12.835991,-3.44745 14.066893,-2.68671 1.630084,1.00745 1.009457,2.30485 -1.316893,2.75293 -1.929146,0.37157 -1.857845,0.45279 0.5,0.56955 4.9389,0.24458 2.886689,2.13194 -2.5,2.29918 l -5.25,0.16299 5.5,0.67401 5.5,0.67401 -5,0.31319 -5,0.31319 4.5,0.69961 c 3.504813,0.54489 3.836542,0.73621 1.5,0.86512 -2.079229,0.11471 -2.586766,0.42739 -1.653627,1.01877 2.254915,1.42906 -3.89134,2.9727 -8.390172,2.10721 l -3.956201,-0.7611 4,-0.13031 c 2.2,-0.0717 4.675,-0.61131 5.5,-1.19919 1.136019,-0.80952 0.681043,-0.92713 -1.875,-0.48469 -1.85625,0.3213 -5.595308,0.58419 -8.309017,0.58419 -2.713709,0 -4.687704,0.39854 -4.386655,0.88565 0.580867,0.93986 -4.026727,2.18362 -4.890282,1.32006 z m 7.460954,-4.20571 c 0,-1.25292 -1.061241,-1.25292 -3,0 -1.212959,0.78387 -1.069438,0.9723 0.75,0.98469 1.2375,0.008 2.25,-0.43469 2.25,-0.98469 z m 5.269032,-2.65594 c -0.677033,-0.27392 -2.027033,-0.29059 -3,-0.0371 -0.972968,0.25354 -0.419032,0.47766 1.230968,0.49804 1.65,0.0204 2.446064,-0.18706 1.769032,-0.46099 z m 7.980968,-2.00634 c -0.6875,-0.27741 -1.8125,-0.27741 -2.5,0 -0.6875,0.27741 -0.125,0.50439 1.25,0.50439 1.375,0 1.9375,-0.22698 1.25,-0.50439 z M 171.41661,111.66579 c -2.05215,-4.73682 -2.18298,-6.29691 -0.4816,-5.7427 2.01711,0.65705 3.84346,5.33262 2.98718,7.64736 -0.69316,1.87381 -0.95479,1.67493 -2.50558,-1.90466 z m -41.7316,-0.34835 c 0,-0.75083 -0.9513,-2.57453 -2.114,-4.05266 -2.42935,-3.08842 -1.98961,-4.2432 1.00544,-2.6403 2.555,1.36739 4.44435,4.74065 3.71695,6.63624 -0.6962,1.81426 -2.60839,1.85584 -2.60839,0.0567 z m 34.07895,-16.218198 c 0.048,-1.164943 0.28494,-1.4019 0.60416,-0.604167 0.28887,0.721875 0.25335,1.584375 -0.0789,1.916667 -0.3323,0.332291 -0.56864,-0.258334 -0.52522,-1.3125 z m -81.328952,0.01261 c -0.4125,-0.419433 -0.75,-2.127605 -0.75,-3.795939 0,-2.168851 0.307274,-2.726059 1.078178,-1.955155 0.592997,0.592997 0.930497,2.30117 0.75,3.795939 -0.180498,1.494768 -0.665678,2.374588 -1.078178,1.955155 z"
       id="path310" /></g></svg>
